<?xml version="1.0" encoding="UTF-8" standalone="no"?>
<svg width="23px" height="23px" viewBox="0 0 23 23" version="1.1" xmlns="http://www.w3.org/2000/svg" xmlns:xlink="http://www.w3.org/1999/xlink" xmlns:sketch="http://www.bohemiancoding.com/sketch/ns">
    <!-- Generator: Sketch 3.2 (9961) - http://www.bohemiancoding.com/sketch -->
    <title>Artboard 1</title>
    <desc>Created with Sketch.</desc>
    <defs></defs>
    <g id="Page-1" stroke="none" stroke-width="1" fill="none" fill-rule="evenodd" sketch:type="MSPage">
        <g id="Artboard-1" sketch:type="MSArtboardGroup" fill="#000000">
            <g id="Group" sketch:type="MSLayerGroup" transform="translate(5.000000, 0.000000)">
                <path d="M3.136,8.14 C3.136,8.14 4.022,6.998 3.449,5.412 C2.874,3.827 1.535,3.225 1.535,3.225 C1.535,3.225 0.533,4.586 1.093,6.131 C1.652,7.677 3.136,8.14 3.136,8.14 L3.136,8.14 L3.136,8.14 Z" id="Shape" sketch:type="MSShapeGroup"></path>
                <path d="M5.595,8.951 C5.595,8.951 7.144,8.827 8.031,7.442 C8.918,6.058 8.24,4.51 8.24,4.51 C8.24,4.51 6.802,4.802 5.891,6.223 C4.981,7.643 5.595,8.951 5.595,8.951 L5.595,8.951 L5.595,8.951 Z" id="Shape" sketch:type="MSShapeGroup"></path>
                <path d="M5.752,10.781 C5.035,12.308 5.814,13.526 5.814,13.526 C5.814,13.526 7.335,13.2 8.033,11.713 C8.73,10.224 7.856,8.778 7.856,8.778 C7.856,8.778 6.469,9.254 5.752,10.781 L5.752,10.781 L5.752,10.781 Z" id="Shape" sketch:type="MSShapeGroup"></path>
                <path d="M9.253,12.011 C9.253,12.011 7.916,12.617 7.346,14.203 C6.776,15.792 7.665,16.93 7.665,16.93 C7.665,16.93 9.147,16.463 9.703,14.916 C10.258,13.369 9.253,12.011 9.253,12.011 L9.253,12.011 L9.253,12.011 Z" id="Shape" sketch:type="MSShapeGroup"></path>
                <path d="M10.367,20.363 C10.367,20.363 11.653,19.488 11.74,17.847 C11.826,16.205 10.471,15.195 10.471,15.195 C10.471,15.195 9.365,16.16 9.276,17.844 C9.188,19.527 10.367,20.363 10.367,20.363 L10.367,20.363 L10.367,20.363 Z" id="Shape" sketch:type="MSShapeGroup"></path>
                <path d="M5.111,5.084 C5.111,5.084 6.482,4.626 6.884,2.989 C7.287,1.352 6.508,0.108 6.508,0.108 C6.508,0.108 4.92,0.684 4.527,2.281 C4.135,3.877 5.111,5.084 5.111,5.084 L5.111,5.084 L5.111,5.084 Z" id="Shape" sketch:type="MSShapeGroup"></path>
                <path d="M3.135,11.621 C3.135,11.621 3.644,10.268 2.629,8.923 C1.612,7.577 0.156,7.396 0.156,7.396 C0.156,7.396 -0.4,8.992 0.59,10.304 C1.58,11.617 3.135,11.621 3.135,11.621 L3.135,11.621 L3.135,11.621 Z" id="Shape" sketch:type="MSShapeGroup"></path>
                <path d="M4.271,15.191 C4.271,15.191 4.466,13.759 3.178,12.673 C1.888,11.586 0.428,11.734 0.428,11.734 C0.428,11.734 0.24,13.414 1.496,14.473 C2.754,15.531 4.271,15.191 4.271,15.191 L4.271,15.191 L4.271,15.191 Z" id="Shape" sketch:type="MSShapeGroup"></path>
                <path d="M6.001,18.143 C6.001,18.143 5.756,16.719 4.198,16.075 C2.639,15.429 1.293,16.012 1.293,16.012 C1.293,16.012 1.623,17.67 3.141,18.3 C4.659,18.927 6.001,18.143 6.001,18.143 L6.001,18.143 L6.001,18.143 Z" id="Shape" sketch:type="MSShapeGroup"></path>
                <path d="M6.757,19.369 C5.133,18.915 3.865,19.654 3.865,19.654 C3.865,19.654 4.39,21.26 5.972,21.703 C7.556,22.146 8.794,21.207 8.794,21.207 C8.794,21.207 8.381,19.822 6.757,19.369 L6.757,19.369 L6.757,19.369 Z" id="Shape" sketch:type="MSShapeGroup"></path>
                <path d="M5.28,6.06 L4.558,5.705 C4.52,5.784 0.806,13.673 11.242,22.594 L11.764,21.983 C1.828,13.488 5.134,6.359 5.28,6.06 L5.28,6.06 L5.28,6.06 Z" id="Shape" sketch:type="MSShapeGroup"></path>
            </g>
        </g>
    </g>
</svg>