<?xml version="1.0" encoding="UTF-8" standalone="no"?>
<svg width="574px" height="580px" viewBox="0 0 574 580" version="1.1" xmlns="http://www.w3.org/2000/svg" xmlns:xlink="http://www.w3.org/1999/xlink" xmlns:sketch="http://www.bohemiancoding.com/sketch/ns">
    <!-- Generator: Sketch 3.2 (9961) - http://www.bohemiancoding.com/sketch -->
    <title>googleplus</title>
    <desc>Created with Sketch.</desc>
    <defs></defs>
    <g id="Page-1" stroke="none" stroke-width="1" fill="none" fill-rule="evenodd" sketch:type="MSPage">
        <path d="M574,206 L574,580 L319,580 C322.698517,568.975729 324.328358,557.134849 324,544 C324.328358,530.188639 321.676617,517.018762 316,505 C311.067652,492.928694 304.234319,481.80235 296,472 C287.50995,461.387038 278.330846,451.994994 268,443 C258.340796,434.847134 248.651741,426.885162 239,420 L209,396 C204.38806,392.587439 199.492537,387.993994 195,382 C189.701493,376.968725 187.253731,369.518137 187,360 C187.253731,350.73505 189.803483,342.877156 195,337 C200.002488,330.217662 205.20398,324.398297 211,319 C219.482587,312.150111 228.049751,304.902676 236,297 C244.368159,289.795345 251.609453,281.322991 258,272 C264.256219,262.540905 269.253731,252.027019 273,240 C276.597015,228.753564 278.432836,215.177382 278,200 C278.432836,185.371027 276.699005,172.611458 273,161 C269.763682,150.154615 265.4801,140.253189 260,132 C255.281095,123.104328 249.773632,115.652739 244,109 C237.942786,102.995246 232.537313,97.5851885 228,93 L278,93 L326,55 L149,55 C137.686567,55.1213408 126.263682,55.7338001 114,57 C102.60199,58.1836375 90.5671642,60.4293217 78,64 C66.0895522,66.9622214 53.7487562,71.7598196 41,78 C28.8631841,84.4173126 16.7263682,92.4813606 5,102 C4.07960199,103.097323 3.26368159,103.811858 2,104 C1.6318408,105.036777 0.815920398,105.751313 0,107 L0,0 L574,0 L574,162 L468,162 L468,55 L422,55 L422,162 L316,162 L316,206 L422,206 L422,313 L468,313 L468,206 L574,206 Z M206,490 C219.417417,498.871037 230.954955,507.554338 241,516 C250.558559,524.311867 258.216216,532.896995 264,542 C269.243243,550.469961 272,560.177067 272,571 C272,572.847394 271.897898,574.584455 272,576 C271.489489,577.445496 271.183183,578.773837 271,580 L0,580 L0,508 C8.98498498,497.033799 18.990991,488.857391 30,483 C41.045045,477.414227 49.4174174,473.531385 55,471 C63.7117117,468.626742 72.7987988,466.276601 82,464 C91.993994,462.598119 100.978979,461.269778 109,460 C117.723724,459.635899 124.972973,459.020815 131,459 C137.225225,458.203375 141.309309,458.000016 143,458 L153,458 C153.459459,457.997011 156.42042,458.405731 162,459 C178.27027,470.667338 192.870871,480.885344 206,490 Z M210,238 C210,244.424461 208.370876,252.588454 205,263 C201.85438,272.998436 196.152446,282.795227 188,292 C181.083049,300.347812 172.631968,305.858507 163,309 C152.675199,311.571301 142.391354,313 132,313 C113.881684,313 98.6086462,308.407754 86,299 C73.3572241,290.03877 62.9715586,278.40508 55,264 C46.6803185,250.239305 40.6729238,235.135918 37,219 C32.9345848,202.888146 31,187.682709 31,173 C31,162.782531 31.9163823,152.067291 34,141 C35.5819113,130.432709 40.1638225,120.533868 47,112 C54.4186576,103.389483 63.1751991,96.7562389 74,92 C84.3538111,86.5512478 94.9431172,84 106,84 C123.045506,84 138.318544,89.2045455 151,100 C164.384528,110.022727 175.279295,122.983066 184,138 C192.792378,154.006239 199.308874,170.742424 204,189 C207.861775,206.665994 210,223.198079 210,238 L210,238 Z M109,378 C108.913242,391.27319 111.666667,402.108646 117,411 C122.680365,419.284998 128.289193,427.466219 134,435 C125.841705,435.644432 116.153729,435.848912 105,436 C93.718417,435.848912 81.8888889,436.564594 69,438 C57.0060883,439.429324 44.7686454,441.778843 33,445 C20.7016743,448.324221 9.78995434,453.638706 0,461 L0,315 C11.4216134,323.999142 24.6788432,331.562911 40,338 C54.8645358,343.83374 71.7929985,346.900945 91,347 C98.7153729,346.900945 107.48554,346.289509 117,345 C114.828006,350.378114 112.99239,355.386882 111,360 C109.729072,364.790975 108.913242,370.823146 109,378 L109,378 Z" id="googleplus" fill="#000000" sketch:type="MSShapeGroup"></path>
    </g>
</svg>