<?xml version="1.0" encoding="UTF-8" standalone="no"?>
<svg width="500px" height="500px" viewBox="0 0 500 500" version="1.1" xmlns="http://www.w3.org/2000/svg" xmlns:xlink="http://www.w3.org/1999/xlink" xmlns:sketch="http://www.bohemiancoding.com/sketch/ns">
    <!-- Generator: Sketch 3.2 (9961) - http://www.bohemiancoding.com/sketch -->
    <title>Artboard 1</title>
    <desc>Created with Sketch.</desc>
    <defs></defs>
    <g id="Page-1" stroke="none" stroke-width="1" fill="none" fill-rule="evenodd" sketch:type="MSPage">
        <g id="Artboard-1" sketch:type="MSArtboardGroup" fill="#000000">
            <path d="M418.153496,295.454532 C418.153496,278.893574 416.038358,264.447645 411.808081,252.114153 C407.577804,239.781525 401.759445,229.563062 394.358188,221.458764 C386.955204,213.354465 378.230257,207.364332 368.18335,203.488363 C358.136442,199.612394 347.120096,197.67441 335.134311,197.67441 C325.61446,197.67441 317.331895,198.819582 310.279706,201.109927 C303.230972,203.400273 297.149949,206.395339 292.038364,210.095128 C286.92678,213.794916 282.608372,217.758975 279.083141,221.987305 C275.55791,226.215635 272.561464,230.091603 270.093802,233.615211 L270.093802,202.959822 L198.179094,202.959822 C198.531617,208.949955 198.707879,220.577862 198.707879,237.843541 L198.707879,303.384377 C198.707879,303.384377 198.531617,342.320246 198.179094,420.191983 L270.093802,420.191983 L270.093802,298.625779 C270.093802,295.454532 270.270064,292.373102 270.622587,289.376308 C270.97511,286.381241 271.680156,283.650445 272.737726,281.185647 C275.55791,274.841425 279.876318,268.853019 285.691221,263.213519 C291.507852,257.577473 299.52948,254.756859 309.752649,254.756859 C322.796003,254.756859 332.137865,259.24946 337.778234,268.23466 C343.418603,277.218997 346.238788,289.112038 346.238788,303.911191 L346.238788,420.191119 L418.153496,420.191119 L418.153496,295.454532 L418.153496,295.454532 Z M122.034109,173.361514 C134.72494,173.361514 144.771847,169.661726 152.174832,162.262149 C159.577817,154.862572 163.103048,146.053552 162.750525,135.835089 C162.750525,125.264265 159.137163,116.367155 151.91044,109.143758 C144.683717,101.920362 134.901201,98.3086636 122.562893,98.3086636 C110.224586,98.3086636 100.353939,101.920362 92.9509547,109.143758 C85.54797,116.367155 81.8464777,125.264265 81.8464777,135.835089 C81.8464777,146.053552 85.3717085,154.862572 92.4221701,162.262149 C99.4726317,169.661726 109.167016,173.361514 121.505324,173.361514 L122.034109,173.361514 L122.034109,173.361514 Z M157.991463,202.959822 L86.0767546,202.959822 L86.0767546,420.190256 L157.991463,420.190256 L157.991463,202.959822 L157.991463,202.959822 Z M498,2.84217094e-14 L498,500 L2,500 L2,2.84217094e-14 L498,2.84217094e-14 Z" id="Shape" sketch:type="MSShapeGroup"></path>
        </g>
    </g>
</svg>