<?xml version="1.0" encoding="UTF-8" standalone="no"?>
<svg width="20px" height="20px" viewBox="0 0 20 20" version="1.1" xmlns="http://www.w3.org/2000/svg" xmlns:xlink="http://www.w3.org/1999/xlink" xmlns:sketch="http://www.bohemiancoding.com/sketch/ns">
    <!-- Generator: Sketch 3.2 (9961) - http://www.bohemiancoding.com/sketch -->
    <title>Artboard 1</title>
    <desc>Created with Sketch.</desc>
    <defs></defs>
    <g id="Page-1" stroke="none" stroke-width="1" fill="none" fill-rule="evenodd" sketch:type="MSPage">
        <g id="Artboard-1" sketch:type="MSArtboardGroup" fill="#000000">
            <path d="M20,4.97665219 C20,5.12530486 19.9952031,5.28002498 19.9875282,5.43879008 C19.9021442,7.35913985 18.5465535,9.97522456 15.9149998,13.286033 C13.2009402,16.7545952 10.8984506,18.4908988 9.00753106,18.5 C7.83134264,18.5 6.85470331,17.4381952 6.07089749,15.3135744 L5.24775747,12.4011956 L4.43421116,9.49286182 C3.8346045,7.38543216 3.1937449,6.33373981 2.50971363,6.33373981 C2.36005181,6.33373981 1.84103228,6.64115758 0.949776946,7.25397061 L0,6.06980548 L1.47359332,4.77945988 L2.92320238,3.50226042 C4.22123087,2.4060734 5.20842327,1.81348522 5.88573896,1.72550711 C5.9759198,1.71539468 6.06610064,1.71236095 6.15820022,1.71236095 C7.5483283,1.71236095 8.41655874,2.76506454 8.75713532,4.87148296 C8.94709071,6.07283921 9.1044275,7.0496996 9.23202379,7.80004164 C9.35578261,8.55240616 9.45939464,9.07622985 9.54190051,9.37454643 C10.0014391,11.3666944 10.4964743,12.3678246 11.028925,12.3759146 C11.4376169,12.3759146 12.0669641,11.7266968 12.9169665,10.4282613 C13.7477815,9.09443222 14.1948482,8.10644816 14.2524104,7.46329784 C14.2706385,7.33284754 14.2773541,7.21048718 14.2773541,7.09722801 C14.2773541,6.22654809 13.8226124,5.792725 12.9169665,5.792725 C12.4574279,5.792725 11.9671895,5.89587175 11.4424138,6.09508655 C12.382597,3.04012254 14.1900513,1.51011243 16.862858,1.5 C16.9376889,1.5 17.0115604,1.5 17.0873507,1.5 C19.0224013,1.55359586 19.9904063,2.71146868 20,4.97665219 Z" id="vimeo" sketch:type="MSShapeGroup"></path>
        </g>
    </g>
</svg>