<?xml version="1.0" encoding="utf-8"?>
<!-- Generator: Adobe Illustrator 16.0.0, SVG Export Plug-In . SVG Version: 6.00 Build 0)  -->
<!DOCTYPE svg PUBLIC "-//W3C//DTD SVG 1.1//EN" "http://www.w3.org/Graphics/SVG/1.1/DTD/svg11.dtd">
<svg version="1.1" id="Layer_4" xmlns="http://www.w3.org/2000/svg" xmlns:xlink="http://www.w3.org/1999/xlink" x="0px" y="0px"
	 width="100px" height="100px" viewBox="0 0 100 100" enable-background="new 0 0 100 100" xml:space="preserve">
<g>
	<path d="M74.293,48.546c-1.361-0.407-2.296-0.686-1.582-2.474c1.543-3.887,1.702-7.238,0.028-9.629
		c-3.139-4.484-11.729-4.243-21.574-0.121c0-0.005-3.092,1.354-2.301-1.1c1.515-4.868,1.286-8.945-1.07-11.3
		c-5.341-5.346-19.545,0.202-31.729,12.379C6.944,45.424,1.647,55.093,1.647,63.453c0,15.993,20.509,25.715,40.572,25.715
		c26.3,0,43.794-15.281,43.794-27.412C86.014,54.426,79.841,50.266,74.293,48.546z M42.272,83.437
		c-16.008,1.579-29.828-5.655-30.868-16.167c-1.039-10.509,11.1-20.311,27.105-21.893c16.011-1.585,29.831,5.652,30.869,16.159
		C70.416,72.05,58.282,81.854,42.272,83.437z"/>
	<path d="M91.757,19.28L91.757,19.28c-6.351-7.041-15.719-9.724-24.366-7.886h-0.003c-1.999,0.427-3.276,2.396-2.847,4.394
		c0.426,1.998,2.394,3.276,4.395,2.849c6.15-1.307,12.808,0.605,17.324,5.606c4.511,5.001,5.736,11.823,3.804,17.803l0.001,0.003
		c-0.63,1.949,0.435,4.033,2.386,4.662c1.944,0.629,4.031-0.436,4.661-2.378c0-0.003,0-0.01,0.001-0.014
		C99.824,35.903,98.111,26.314,91.757,19.28z"/>
	<path d="M70.135,24.247c-1.723,0.366-2.821,2.062-2.449,3.785c0.367,1.716,2.062,2.819,3.778,2.445v0.003
		c2.06-0.437,4.293,0.199,5.805,1.872c1.512,1.678,1.92,3.963,1.27,5.967h0.003c-0.54,1.673,0.375,3.471,2.051,4.015
		c1.676,0.536,3.473-0.378,4.013-2.055c1.323-4.1,0.497-8.769-2.602-12.197C78.911,24.654,74.348,23.352,70.135,24.247z"/>
	<polygon points="82.003,28.082 82.003,28.082 82.003,28.083 	"/>
	<path d="M43.872,53.465c-7.617-1.983-16.229,1.814-19.537,8.527c-3.369,6.846-0.112,14.445,7.584,16.931
		c7.974,2.57,17.37-1.37,20.638-8.759C55.78,62.94,51.756,55.502,43.872,53.465z M38.055,70.949
		c-1.549,2.47-4.863,3.552-7.362,2.412c-2.461-1.12-3.188-3.991-1.638-6.399c1.529-2.398,4.732-3.468,7.213-2.429
		C38.773,65.603,39.576,68.452,38.055,70.949z M43.156,64.4c-0.56,0.959-1.798,1.419-2.768,1.02
		c-0.954-0.392-1.253-1.463-0.711-2.404c0.558-0.936,1.748-1.393,2.699-1.016C43.344,62.354,43.69,63.438,43.156,64.4z"/>
</g>
</svg>
